<?xml version="1.0" encoding="utf-8"?>
<!-- Generator: Adobe Illustrator 23.1.0, SVG Export Plug-In . SVG Version: 6.00 Build 0)  -->
<svg version="1.1" id="Layer_1" xmlns="http://www.w3.org/2000/svg" xmlns:xlink="http://www.w3.org/1999/xlink" x="0px" y="0px"
	 viewBox="0 0 1000 1000" style="enable-background:new 0 0 1000 1000;" xml:space="preserve">
<style type="text/css">
	.st0{fill:#231F20;}
	.st1{fill:#F43F95;}
	.st2{fill:#F43F96;}
	.st3{fill:#6B3FD1;}
	.st4{fill:#8E3FC2;}
	.st5{fill:#A63DD2;}
	.st6{fill:#A94AD0;}
	.st7{fill:#1CA8AF;}
	.st8{fill:#A4CF42;}
	.st9{fill:#F6911E;}
	.st10{fill:#C7F3F2;}
	.st11{fill:#F1B569;}
	.st12{fill:#9DEDF1;}
	.st13{fill:#3EA8EE;}
	.st14{fill:#AC3BD8;}
	.st15{fill:#9D43CD;}
	.st16{fill:#AB39DD;}
	.st17{fill:#A93EE1;}
	.st18{fill:#FFFFFF;}
	.st19{fill:#1CD8EC;}
</style>
<g>
	<g>
		<path class="st1" d="M524.2,832.9c-1.7-1.1-0.4-1.5,0.5-1.8c1.4-0.4,2.8-0.2,4.2-0.4c21.7-2.7,43-7.4,63.9-14
			c22.7-7.2,44.6-16.3,65.7-27.7c19.8-10.7,38.2-23.3,55.5-37.5c10.3-8.4,19.7-18,29-27.4c1.4-1.3,2.8-2.5,3.7-4.2
			c2.5-2.5,4-6,7.5-7.6c4.7-0.4,9.4-0.2,14.1-0.2c49.9,0,99.8,0,149.7-0.1c4.7,0,7.9,1.6,10.8,5.2c14,17.3,28.5,34.2,42.7,51.4
			c3.1,3.7,3.1,4.6,0,8.5c-7.1,8.9-14.3,17.6-21.3,26.6c-0.2,0.3-0.5,0.7-0.8,0.9c-6.4,8.3-13.3,16.2-19.6,24.5
			c-2.1,2.8-4.5,4.7-8.3,3.9c-1-0.2-2.2,0-3.3,0C797.5,832.9,645,832.9,524.2,832.9"/>
		<path class="st2" d="M276,691.9c0.4,0.1,0.8,0.1,1.1,0.2c7.5,0.7,14.8,2.3,22.1,3.8c1,0.2,1.9,0.4,2.9,0.7
			c4.7,1.5,5.2,1.2,6.2-3.8c4.2-20,8.6-39.8,12.8-59.8c0.5-2.2,1-4.5,1.5-6.7c0.2-1,0.5-2.3,1.7-2.6c1.3-0.3,2,0.7,2.6,1.6
			c2.1,2.6,4.2,5.3,6.3,7.9c8.7,11,18.8,20.6,29.3,29.7c1,0.9,2,1.7,2.5,2.9l0,0c9.6,6,18.4,13.2,28.3,18.9
			c21.7,12.4,44.8,20.3,69.7,22.9c11.2,1.2,22.3,2.6,33.5,3.9c1,0.1,2,0,2.5,1.2c-0.1,0.4-0.3,0.7-0.7,0.9
			c-5.9,0.8-11.8,0.2-17.6,0.4c-1.9,0.1-3.7,0-5.6,0.1c-74.9,0-149.9,0-224.8,0c-2.4-0.2-4.7,0.2-7.1-0.3c-2.1-1.1-3.1-3.2-4.5-5
			c-5.3-6.7-10.6-13.5-14.2-21.4c-0.8-1.7-2.3-3.7-1.1-5.5c1.3-1.8,3.4-0.3,5.2-0.1c1.1,0.1,2.1,0.4,3.2,0.5
			c6.7,1.3,13.4,2.9,20.2,4.2c1.1,0.2,2.2,0.2,2.9,1.2l0-0.1c5.8,0.3,11.5,1.8,17.2,2.9C273.5,690.6,274.9,690.9,276,691.9z"/>
		<path class="st3" d="M781.4,678.9c-0.9,1.5-1.9,3-2.8,4.5c-2.8,4.1-5.6,8.3-8.4,12.4c-4.5,5.7-9,11.5-13.6,17.2
			c-2.2,2.4-4.4,4.8-6.6,7.2c-1,1.4-2.6,2.3-3.4,3.9c-11.1,12.1-23,23.2-35.9,33.3c-20,15.7-41.5,29.1-64.5,40.1
			c-14.4,6.8-29.1,12.7-44.2,17.8c-22.9,7.7-46.3,13-70.2,16.2c-1.8,0.2-3.7-0.2-5.5,0.6c-0.9,0-1.8,0-2.6,0
			c-0.8-0.9-0.2-1.3,0.5-1.7c0.5-0.7,1-1.4,1.5-2.1c1.8-4.3,5.4-7.5,8-11.3c1.4-2,3-4,4.4-6c1-0.8,1.8-1.8,2.5-2.9
			c0.2-0.2,0.4-0.4,0.5-0.6c0.9-0.8,1.4-1.8,1.9-2.8c9.2-11.8,18.4-23.7,27.3-35.7c2.8-3.2,2.8-3.2-0.1-6.2c-2-2.1-4.1-4.1-6.1-6.1
			c-0.5-0.5-1-1.1-1.5-1.6c-1-1.6-2.2-3-3.9-4c-1.6-2-3.4-3.9-5.3-5.7c-9.8-9.4-18.7-19.7-28.5-29.1c-0.6-0.6-1.3-1.2-1.6-2
			c-0.1-0.5,0-0.9,0.4-1.3c43.6-7.8,83.8-23.3,117.7-52.7c17.8-15.4,32.4-33.3,41.6-55.1c0.5-1.3,1.5-1.7,2.6-2.2
			c10.5-2.3,21.1-4.6,31.6-6.9c14.3-3.2,28.5-6.4,42.7-9.7c2.3-0.5,3,0.2,3.7,2.2c8.7,24.2,17.4,48.5,26.1,72.7
			c0.5,1.4,0.4,2.4-0.3,3.7c-1.3,2.7-3.6,4.9-4.5,7.9c-0.1,2.4-1.8,3.8-3.4,5.4C781.7,678.4,781.5,678.7,781.4,678.9z"/>
		<path class="st4" d="M746.6,724.1c-0.1-2.3,2-2.8,3.4-3.9C749.4,722,748,723.1,746.6,724.1z"/>
		<path class="st5" d="M249.7,713.1c1.1,0,2.2-0.1,3.3-0.1c73,0,146.1,0,219.1,0c1.1,0,2.2,0.1,3.3,0.1c8.5,0.4,16.9,0.3,25.4,0
			c0.3,0.1,0.7,0.2,1,0.3c4.1,2.6,7.5,6,10.3,10c6.9,6.8,13.9,13.5,20.8,20.3c6.9,6.6,13.8,13.3,20.9,19.8c1.9,1.7,1.7,2.9,0.2,4.8
			c-11.7,14.1-23.4,28.2-35.1,42.3c-4.9,5.9-9.9,11.8-14.9,17.7c-1.1,0.9-2,2-3.5,2.2c-2.2,0.2-4.4,0.1-6.6,0.1
			c-152.4,0-304.8,0-457.2,0c-1.6,0-3.3,0-4.9,0c-0.3,0-0.5,0-0.8,0c0.4,0.7,1.8,0.2,1.7,1.4c-1.9,0-3.9,0-6.6,0
			c3.7-4.6,7-8.8,10.4-13c11.8-14.7,23.6-29.4,35.5-44c1.5-1.8,1.7-3,0.1-4.7c-1.6-1.6-3-3.4-4.5-5.2c-5.8-7.9-12.1-15.3-18.3-22.8
			c-2.1-1.1-2.9-3.3-4.1-5.1c-5.7-7.2-11.4-14.4-17-21.6c-0.6-1.1,0-1.5,1-1.6"/>
		<path class="st6" d="M32.4,714.6c-1.2,0-2.4,0.3-3.5-0.3c-0.5,0.3-0.6,0.8-0.7,1.3c-0.8-0.5-1.7-1.2-1.4-2
			c0.4-1.2,1.7-0.5,2.6-0.5c69.7,0,139.4,0,209.1,0c1.4,0,2.8,0,4.3-0.1c2.3,0,4.6,0.1,6.9,0.1"/>
		<path class="st6" d="M499,712.9c1.1,0,2.3-0.2,2.6,1.3c-2-0.9-4.1-0.6-6.1-0.6c-5.7,0-11.4,0-17,0c-1.1,0-2.2,0.4-3.1-0.5
			C483.2,713.1,491.1,713,499,712.9z"/>
		<path class="st7" d="M690.2,225.4c12.9,9.5,25.5,19.3,37.3,30.2c9,8.3,17.4,17.1,25.6,26.2c0.9,1.1,1.9,2.1,2.7,3.2
			c7.3,8.6,14.2,17.6,20.4,27c0.5,0.8,1.7,1.5,1.1,2.5c-0.6,1.1-1.8,0.2-2.7,0.1c-26-4-51.9-8-77.9-12.1c-2.3-0.4-2.9,0.2-3.4,2.4
			c-5.3,21-10.8,42-16.3,63c-0.2,0.7-0.4,1.7-0.9,1.9c-1,0.4-1.4-0.8-1.9-1.4C663,356,651.1,344.3,638,334
			c-9.4-7.5-19-14.6-29.6-20.3c-9.4-6.1-19.5-10.8-29.7-15c-16-6.6-32.6-11.2-49.8-13.4c-8.3-1-16.7-2-25.1-1.1
			c-2,0.2-3.5-0.4-5-1.8c-6.7-6.4-13.5-12.7-20.3-19c-0.8-0.7-1.7-1.4-2.5-2c-3-1.5-4.6-4.6-7.1-6.7l0,0c-1.6-0.6-2.5-1.9-3.3-3.3
			c-7-7-14.3-13.7-21.7-20.3c-1.3-2.4,1.4-3,2.1-4.5c8-8.6,16-17.2,23.9-25.9c7.9-8.7,15.8-17.4,23.7-26.1c1-1,1.9-2,2.8-3.1
			c2.9-4.9,7.4-4.9,12.5-4.7c38.1,0.9,75,7.7,110.7,21.3c24.6,9.4,47.7,21.5,69.4,36.5C689.2,225,689.7,225.1,690.2,225.4z"/>
		<path class="st8" d="M307.3,634.2c-2.3,7.7-3.7,15.7-5.5,23.5c-1.6,7.1-3.3,14.2-4.7,21.4c-0.4,2.2-1.2,2.6-3.3,2.2
			c-16.5-3.2-33-6.3-49.5-9.3c-9-1.7-18-3.4-27-4.9c-2.6-0.4-4.2-1.6-5.6-3.8c-8.7-13.9-16.2-28.4-22.3-43.7
			c-0.3-0.8-0.7-1.5-1.1-2.3c-3.3-9.9-6.9-19.7-9.6-29.9c-5.8-22.2-9-44.8-9.8-67.8c-1.3-36.6,3.3-72.5,12.4-107.9
			c5.5-21.5,12.5-42.4,21.7-62.7c0.4-0.8,0.8-1.5,1.4-2.6c2,3.2,2.3,6.6,3.3,9.7c7,23,13.9,46.1,20.7,69.2c0.7,2.4,1.7,3.1,3.9,2.2
			c2.5-1,5.4-0.9,7.8-2.3c6.9-1.3,13.5-3.3,20.3-5.1c14.1-3.7,28.3-7.5,42.4-11.2c0.8-0.2,1.9-0.7,2.4,0.1c0.3,0.4-0.2,1.4-0.5,2.1
			c-10.9,26.1-17.4,53.2-18.3,81.6c-1.1,33.9,5.6,66.1,20.9,96.4c1.3,2.6,2.5,5.4,4.3,7.7c2.5,3.1,2.4,6.1,1.6,9.7
			C311.1,615.9,308.7,624.9,307.3,634.2z"/>
		<path class="st9" d="M365.8,195.8c13-5.2,25.9-10.4,39.2-14.5c22.9-7,46.2-12,70.1-14.2c1.8-0.2,3.7,0,6.2,0
			c-6.6,7.8-13,15.3-19.4,22.7c-0.8,0.7-1.6,1.4-2.4,2.1c-1,1.4-2.4,2.4-3.3,3.9c-9.8,11.1-19.5,22.3-29.4,33.4
			c-1.6,1.8-1.9,2.8,0.1,4.7c17.4,15.6,34.7,31.2,52,46.9c0.7,0.6,2,1.2,1.7,2.2c-0.3,1.4-1.8,0.7-2.8,0.9c-24,3.1-47,9.6-68.7,20.3
			c-19.1,9.4-36.5,21.3-52.2,35.8c-16.4,15.1-30.6,32-41.7,51.4c-0.8,1.4-1.8,2.1-3.2,2.4c-24.3,6.3-48.6,12.5-72.8,18.9
			c-2.3,0.6-2.6-0.6-3-2.2c-3.5-13.1-7-26.1-10.6-39.2c-2.4-8.5-4.2-17.1-7.1-25.5c-0.6-5.3-2.6-10.3-4-15.5c-0.6-2.3-0.2-3.9,1-5.8
			c11.9-18.3,25.3-35.5,40.3-51.4c27-28.4,58-51.4,93-69c5.1-2.5,10.1-5.1,15.2-7.6C364.4,195.9,364.9,195.4,365.8,195.8z"/>
		<path class="st10" d="M445.8,226.7c-0.3,1.7-2.7,2.4-2.1,4.5C441,228.1,444.9,228.1,445.8,226.7z"/>
		<path class="st11" d="M456.2,195.8c0.4-1.9,1.8-3,3.3-3.9C459,193.7,457.7,194.8,456.2,195.8z"/>
		<path class="st12" d="M496.3,171.6c-0.4,1.5-1.4,2.5-2.8,3.1C493.9,173.3,494.9,172.3,496.3,171.6z"/>
		<path class="st13" d="M758.4,324.5c9.9,1.9,19.9,3.8,29.9,5.5c1.9,0.3,2.8,1.2,3.6,2.8c17.2,34.9,29.7,71.4,36.2,109.9
			c4,24.1,5.6,48.3,4.3,72.7c-2.3,43.1-11.9,84.3-31.6,123c-0.2,0.4-0.3,0.8-0.4,1.2c-1.6,1.4-1.7,5-3.7,4.7
			c-1.6-0.3-1.9-3.6-2.6-5.6c-8.4-22.1-16.9-44.2-25.1-66.4c-1.2-3.1-2.4-3.8-5.7-2.9c-22.2,5.6-44.5,11-66.7,16.4
			c-0.3,0.1-0.6,0-1.5,0c1.7-4.1,3.3-7.9,4.9-11.8c12-29.8,17.4-60.8,15.2-92.9c-2.1-29.9-10.1-58.2-25.3-84.2
			c-2-3.4-2.5-6.2-1.6-10c5.2-22.9,10.2-45.8,15.1-68.7c0.6-2.6,1.4-3.1,3.9-2.6c16,3,32,5.8,48,8.7
			C756.2,324.3,757.3,324.4,758.4,324.5z"/>
		<path class="st14" d="M32.7,832.1c-0.8-1.2-2.6,0.5-3.2-1.1c1.1-0.9,2.5-0.6,3.8-0.6c154.9,0,309.7,0,464.6,0
			c1.3,0,2.7-0.4,3.7,0.7c-0.6,1.8-2.2,1.1-3.3,1.2c-6,0.1-12,0-18,0c-147.4,0-294.9,0-442.3,0C36.2,832.2,34.5,832.1,32.7,832.1z"
			/>
		<path class="st15" d="M501.6,831.1c-1.9,0-3.7-0.1-5.6-0.1c-155.5,0-311,0-466.6,0c0-0.2,0-0.4,0-0.6c1.4-0.6,2.8-0.3,4.2-0.3
			c154.5,0,309,0,463.6,0c1.4,0,2.8,0.4,4.2-0.3c0.8-0.5,1.6-0.9,2.5-1.4C503.4,829.5,502.6,830.4,501.6,831.1z"/>
		<path class="st16" d="M501.5,829.7c-1.3,1.2-2.9,0.6-4.4,0.6c-155.9,0-311.7,0-467.6,0c1.1-1.1,2.5-0.6,3.7-0.6
			C189.3,829.7,345.4,829.7,501.5,829.7z"/>
		<path class="st17" d="M33.5,714.9c-1.5,0-3.3,1.4-4.6-0.6"/>
	</g>
	<g>
		<path class="st18" d="M185.2,754c2.1,0.9,3.7,2.3,4.9,4c1.1,1.8,1.7,3.8,1.7,6.3c0,2.4-0.6,4.5-1.7,6.2c-1.1,1.8-2.7,3.1-4.9,4.1
			c-2.1,0.9-4.6,1.4-7.4,1.4h-7.4v9.5h-6.1v-32.9h13.5C180.6,752.5,183,753,185.2,754z M183.5,769.1c1.4-1.1,2.1-2.7,2.1-4.8
			c0-2.1-0.7-3.7-2.1-4.8c-1.4-1.1-3.4-1.7-6.1-1.7h-7.1v13.1h7.1C180.1,770.8,182.1,770.2,183.5,769.1z"/>
		<path class="st18" d="M197.7,750.6h5.9v34.9h-5.9V750.6z"/>
		<path class="st18" d="M229.4,762.7c2,1.8,2.9,4.4,2.9,8v14.7h-5.5v-3.1c-0.7,1.1-1.7,1.9-3.1,2.5c-1.3,0.6-2.9,0.9-4.8,0.9
			s-3.5-0.3-4.9-1c-1.4-0.6-2.5-1.5-3.3-2.7c-0.8-1.1-1.2-2.4-1.2-3.9c0-2.3,0.8-4.1,2.5-5.4c1.7-1.4,4.3-2,7.9-2h6.5v-0.4
			c0-1.8-0.5-3.1-1.6-4c-1.1-0.9-2.6-1.4-4.7-1.4c-1.4,0-2.8,0.2-4.2,0.7c-1.4,0.4-2.5,1-3.5,1.8l-2.3-4.3c1.3-1,2.9-1.8,4.7-2.3
			c1.8-0.5,3.8-0.8,5.9-0.8C224.6,760.1,227.4,760.9,229.4,762.7z M224,780.5c1.1-0.7,2-1.6,2.4-2.9v-2.9h-6.1
			c-3.4,0-5.1,1.1-5.1,3.3c0,1.1,0.4,1.9,1.3,2.5c0.8,0.6,2,0.9,3.5,0.9C221.6,781.5,222.9,781.2,224,780.5z"/>
		<path class="st18" d="M261.7,762.8c1.9,1.8,2.9,4.6,2.9,8.2v14.4h-5.9v-13.6c0-2.2-0.5-3.8-1.6-5c-1-1.1-2.5-1.7-4.4-1.7
			c-2.2,0-3.9,0.7-5.1,2c-1.3,1.3-1.9,3.2-1.9,5.6v12.7h-5.9v-25.1h5.6v3.2c1-1.2,2.2-2,3.7-2.6c1.5-0.6,3.1-0.9,5-0.9
			C257.2,760.1,259.8,761,261.7,762.8z"/>
		<path class="st18" d="M272.3,755.2c-0.7-0.7-1.1-1.5-1.1-2.5s0.4-1.8,1.1-2.5c0.7-0.7,1.6-1,2.7-1c1.1,0,2,0.3,2.7,1
			c0.7,0.6,1.1,1.4,1.1,2.4c0,1-0.4,1.9-1.1,2.6c-0.7,0.7-1.6,1.1-2.7,1.1C273.9,756.2,273,755.9,272.3,755.2z M272,760.3h5.9v25.1
			H272V760.3z"/>
		<path class="st18" d="M292.1,759v1.5h6.9v4.7h-6.7v20.2h-5.9v-20.2h-4.1v-4.7h4.1v-1.6c0-2.7,0.8-4.8,2.4-6.4
			c1.6-1.6,3.8-2.3,6.6-2.3c2.3,0,4,0.5,5.3,1.4l-1.6,4.4c-1-0.7-2.1-1-3.2-1C293.3,755,292.1,756.3,292.1,759z M307,755.2
			c-0.7-0.7-1.1-1.5-1.1-2.5s0.4-1.8,1.1-2.5s1.6-1,2.7-1c1.1,0,2,0.3,2.7,1c0.7,0.6,1.1,1.4,1.1,2.4c0,1-0.4,1.9-1.1,2.6
			c-0.7,0.7-1.6,1.1-2.7,1.1C308.6,756.2,307.7,755.9,307,755.2z M306.7,760.3h5.9v25.1h-5.9V760.3z"/>
		<path class="st18" d="M343.8,774.8h-19.7c0.3,1.8,1.2,3.3,2.7,4.4c1.5,1.1,3.3,1.6,5.4,1.6c2.8,0,5-0.9,6.8-2.7l3.1,3.6
			c-1.1,1.3-2.6,2.4-4.3,3.1c-1.7,0.7-3.7,1-5.8,1c-2.8,0-5.2-0.5-7.3-1.6c-2.1-1.1-3.7-2.6-4.9-4.6c-1.1-2-1.7-4.2-1.7-6.7
			c0-2.4,0.6-4.6,1.7-6.6c1.1-2,2.7-3.5,4.6-4.6c2-1.1,4.2-1.6,6.7-1.6c2.4,0,4.6,0.5,6.6,1.6c1.9,1.1,3.4,2.6,4.5,4.6
			s1.6,4.2,1.6,6.8C343.9,773.4,343.9,774,343.8,774.8z M326.4,766.4c-1.3,1.1-2.1,2.6-2.4,4.4h14.2c-0.3-1.8-1-3.3-2.3-4.4
			c-1.3-1.1-2.9-1.7-4.8-1.7C329.3,764.8,327.7,765.3,326.4,766.4z"/>
		<path class="st18" d="M364.1,760.1v5.6c-0.5-0.1-1-0.1-1.4-0.1c-2.3,0-4.1,0.7-5.4,2c-1.3,1.3-1.9,3.3-1.9,5.8v12.2h-5.9v-25.1
			h5.6v3.7C356.8,761.4,359.8,760.1,364.1,760.1z"/>
	</g>
	<g>
		<path class="st18" d="M733.8,752.5h6.1v27.7h17.2v5.2h-23.3V752.5z"/>
		<path class="st18" d="M761.7,755.2c-0.7-0.7-1.1-1.5-1.1-2.5s0.4-1.8,1.1-2.5s1.6-1,2.7-1c1.1,0,2,0.3,2.7,1
			c0.7,0.6,1.1,1.4,1.1,2.4c0,1-0.4,1.9-1.1,2.6c-0.7,0.7-1.6,1.1-2.7,1.1C763.3,756.2,762.4,755.9,761.7,755.2z M761.4,760.3h5.9
			v25.1h-5.9V760.3z"/>
		<path class="st18" d="M798.5,760.3l-10.8,25.1h-6.1l-10.8-25.1h6.1l7.8,18.6l8-18.6H798.5z"/>
		<path class="st18" d="M816.6,760.1v5.6c-0.5-0.1-1-0.1-1.4-0.1c-2.3,0-4.1,0.7-5.4,2c-1.3,1.3-1.9,3.3-1.9,5.8v12.2h-5.9v-25.1
			h5.6v3.7C809.4,761.4,812.4,760.1,816.6,760.1z"/>
		<path class="st18" d="M839.6,762.7c2,1.8,2.9,4.4,2.9,8v14.7h-5.5v-3.1c-0.7,1.1-1.7,1.9-3.1,2.5c-1.3,0.6-2.9,0.9-4.8,0.9
			s-3.5-0.3-4.9-1c-1.4-0.6-2.5-1.5-3.3-2.7c-0.8-1.1-1.2-2.4-1.2-3.9c0-2.3,0.8-4.1,2.5-5.4c1.7-1.4,4.3-2,7.9-2h6.5v-0.4
			c0-1.8-0.5-3.1-1.6-4s-2.6-1.4-4.7-1.4c-1.4,0-2.8,0.2-4.2,0.7c-1.4,0.4-2.5,1-3.5,1.8l-2.3-4.3c1.3-1,2.9-1.8,4.7-2.3
			c1.8-0.5,3.8-0.8,5.9-0.8C834.8,760.1,837.6,760.9,839.6,762.7z M834.2,780.5c1.1-0.7,2-1.6,2.4-2.9v-2.9h-6.1
			c-3.4,0-5.1,1.1-5.1,3.3c0,1.1,0.4,1.9,1.3,2.5s2,0.9,3.5,0.9C831.7,781.5,833.1,781.2,834.2,780.5z"/>
		<path class="st18" d="M850.3,755.2c-0.7-0.7-1.1-1.5-1.1-2.5s0.4-1.8,1.1-2.5s1.6-1,2.7-1c1.1,0,2,0.3,2.7,1
			c0.7,0.6,1.1,1.4,1.1,2.4c0,1-0.4,1.9-1.1,2.6c-0.7,0.7-1.6,1.1-2.7,1.1C851.9,756.2,851,755.9,850.3,755.2z M850,760.3h5.9v25.1
			H850V760.3z"/>
		<path class="st18" d="M865.4,785c-1.9-0.5-3.5-1.2-4.7-2l2.3-4.5c1.1,0.8,2.5,1.4,4.1,1.8c1.6,0.5,3.1,0.7,4.7,0.7
			c3.5,0,5.3-0.9,5.3-2.8c0-0.9-0.4-1.5-1.3-1.8c-0.9-0.3-2.3-0.7-4.3-1c-2.1-0.3-3.8-0.7-5.1-1.1c-1.3-0.4-2.4-1.1-3.4-2.1
			c-1-1-1.4-2.4-1.4-4.3c0-2.4,1-4.3,3-5.7c2-1.4,4.7-2.1,8.1-2.1c1.7,0,3.4,0.2,5.2,0.6c1.7,0.4,3.1,0.9,4.2,1.6l-2.3,4.5
			c-2.1-1.3-4.5-1.9-7.2-1.9c-1.7,0-3,0.3-3.9,0.8s-1.3,1.2-1.3,2c0,0.9,0.5,1.6,1.4,2s2.4,0.8,4.4,1.1c2,0.3,3.7,0.7,4.9,1.1
			c1.3,0.4,2.4,1.1,3.3,2.1c0.9,1,1.4,2.3,1.4,4.1c0,2.3-1,4.2-3.1,5.6s-4.8,2.1-8.3,2.1C869.3,785.8,867.3,785.5,865.4,785z"/>
		<path class="st18" d="M892.2,784.1c-2-1.1-3.6-2.6-4.8-4.6c-1.1-2-1.7-4.2-1.7-6.7c0-2.5,0.6-4.7,1.7-6.6c1.1-1.9,2.7-3.5,4.8-4.6
			c2-1.1,4.3-1.6,6.9-1.6c2.6,0,4.9,0.5,6.9,1.6c2,1.1,3.6,2.6,4.8,4.6c1.1,1.9,1.7,4.2,1.7,6.6c0,2.5-0.6,4.7-1.7,6.7
			c-1.1,2-2.7,3.5-4.8,4.6c-2,1.1-4.3,1.6-6.9,1.6C896.5,785.8,894.3,785.2,892.2,784.1z M904.4,778.6c1.4-1.4,2.1-3.3,2.1-5.7
			c0-2.4-0.7-4.2-2.1-5.7c-1.4-1.4-3.2-2.2-5.4-2.2s-3.9,0.7-5.3,2.2c-1.4,1.4-2.1,3.3-2.1,5.7c0,2.3,0.7,4.2,2.1,5.7
			c1.4,1.4,3.2,2.2,5.3,2.2S903,780,904.4,778.6z"/>
		<path class="st18" d="M940,762.8c1.9,1.8,2.9,4.6,2.9,8.2v14.4H937v-13.6c0-2.2-0.5-3.8-1.6-5c-1-1.1-2.5-1.7-4.4-1.7
			c-2.2,0-3.9,0.7-5.1,2c-1.3,1.3-1.9,3.2-1.9,5.6v12.7h-5.9v-25.1h5.6v3.2c1-1.2,2.2-2,3.7-2.6c1.5-0.6,3.1-0.9,5-0.9
			C935.5,760.1,938.1,761,940,762.8z"/>
	</g>
	<g>
		<path class="st18" d="M590.6,732.2l12.7-6.8c3.1-1.7,6.2-2.5,9.2-2.6s5.8,0.6,8.3,2.1c2.5,1.5,4.5,3.7,6,6.6
			c1.5,2.9,2.2,5.8,2.1,8.7c-0.2,2.9-1.1,5.6-2.9,8.1c-1.8,2.5-4.2,4.6-7.3,6.2l-12.7,6.8L590.6,732.2z M616,750.1
			c2.1-1.1,3.8-2.5,5-4.2s1.8-3.5,1.9-5.5c0.1-2-0.4-4-1.5-5.9c-1.1-2-2.4-3.5-4.1-4.6c-1.7-1-3.5-1.5-5.6-1.5
			c-2.1,0-4.1,0.6-6.3,1.8l-7.1,3.8l10.6,19.9L616,750.1z"/>
		<path class="st18" d="M654.6,719.1l-16.1,11.3c1.3,1.3,2.9,2,4.7,2s3.6-0.6,5.4-1.8c2.3-1.6,3.6-3.6,4-6.1l4.7,1.1
			c-0.1,1.8-0.7,3.4-1.7,5c-1,1.6-2.4,3-4.2,4.2c-2.3,1.6-4.6,2.5-6.9,2.8c-2.3,0.3-4.6,0-6.6-1c-2.1-0.9-3.8-2.4-5.2-4.5
			c-1.4-2-2.2-4.1-2.4-6.4c-0.2-2.2,0.2-4.4,1.2-6.4c1-2,2.5-3.8,4.5-5.2c2-1.4,4.1-2.2,6.3-2.4c2.2-0.2,4.3,0.2,6.3,1.1
			s3.8,2.5,5.2,4.6C654,717.9,654.3,718.4,654.6,719.1z M635.6,722.2c-0.4,1.7-0.2,3.3,0.6,5l11.7-8.2c-1.3-1.3-2.7-2.1-4.4-2.3
			c-1.7-0.2-3.3,0.3-4.9,1.4C637,719.2,636.1,720.6,635.6,722.2z"/>
		<path class="st18" d="M667.8,721.3c-1.8,0.9-3.4,1.4-4.8,1.5l-1.2-4.9c1.3-0.2,2.8-0.6,4.3-1.3c1.5-0.7,2.8-1.5,4-2.5
			c2.7-2.3,3.4-4.1,2.2-5.5c-0.6-0.7-1.3-0.8-2.2-0.5c-0.9,0.3-2.2,1-3.9,2.1c-1.8,1.1-3.3,1.9-4.5,2.5c-1.2,0.5-2.6,0.7-4,0.6
			c-1.4-0.1-2.7-0.9-3.9-2.3c-1.6-1.8-2.1-3.9-1.5-6.3c0.6-2.4,2.1-4.7,4.7-6.9c1.3-1.1,2.7-2.1,4.3-2.9c1.6-0.8,3-1.4,4.2-1.6
			l1.2,4.9c-2.4,0.4-4.7,1.5-6.7,3.3c-1.3,1.1-2.1,2.2-2.5,3.2s-0.2,1.8,0.3,2.4c0.6,0.7,1.4,0.9,2.4,0.6c1-0.3,2.3-1,4.1-2.1
			c1.7-1.1,3.2-1.9,4.4-2.4c1.2-0.5,2.5-0.7,3.9-0.6c1.3,0.1,2.6,0.9,3.8,2.2c1.5,1.8,2,3.9,1.4,6.3s-2.2,4.7-4.9,7
			C671.3,719.3,669.7,720.4,667.8,721.3z"/>
		<path class="st18" d="M664.6,684c-1,0-1.8-0.3-2.5-1s-1.1-1.6-1-2.5c0-1,0.4-1.9,1.2-2.6c0.7-0.8,1.6-1.2,2.6-1.2
			c1-0.1,1.8,0.3,2.5,0.9c0.7,0.7,1.1,1.6,1.1,2.6c0,1-0.4,1.9-1.2,2.7C666.5,683.6,665.6,684,664.6,684z M668.1,687.9l4.1-4.2
			l17.8,17.7l-4.1,4.2L668.1,687.9z"/>
		<path class="st18" d="M693.2,659.3l16.5,13.5c6.8,5.6,7.4,11.9,1.7,18.9c-1.5,1.9-3.2,3.4-5.1,4.7c-1.8,1.3-3.7,2.1-5.4,2.5
			l-1.8-4.8c1.4-0.3,2.8-0.9,4.3-1.8c1.5-0.9,2.8-2.1,3.9-3.4c1.7-2.1,2.5-4.1,2.4-5.9c-0.2-1.8-1.2-3.5-3.2-5.1l-1-0.8
			c0.2,1.5,0.1,2.9-0.4,4.4c-0.5,1.5-1.3,2.9-2.4,4.2c-1.5,1.8-3.3,3.2-5.3,4c-2,0.8-4.1,1.1-6.2,0.8c-2.1-0.3-4.1-1.2-6-2.7
			c-1.8-1.5-3.1-3.3-3.8-5.3c-0.7-2-0.8-4.1-0.4-6.2c0.4-2.1,1.4-4.1,2.9-6c1.2-1.4,2.4-2.5,3.8-3.3c1.4-0.8,2.9-1.2,4.5-1.2
			l-2.6-2.1L693.2,659.3z M701.3,676.2c-0.1-1.9-1-3.6-2.7-4.9c-1.6-1.3-3.4-1.9-5.3-1.6c-1.9,0.3-3.6,1.3-5,3
			c-1.4,1.7-2.1,3.6-2,5.5c0.1,1.9,1,3.6,2.6,4.9c1.6,1.4,3.4,1.9,5.4,1.6c1.9-0.3,3.6-1.3,5-3C700.8,680,701.4,678.2,701.3,676.2z"
			/>
		<path class="st18" d="M710.8,636.2c2.6-0.7,5.4,0,8.5,1.9l12.3,7.5l-3.1,5l-11.6-7.1c-1.9-1.1-3.5-1.6-5-1.3s-2.7,1.3-3.7,2.9
			c-1.1,1.8-1.5,3.6-1,5.4c0.5,1.7,1.7,3.3,3.8,4.5l10.8,6.6l-3.1,5l-21.4-13.1l2.9-4.8l2.8,1.7c-0.5-1.4-0.6-2.9-0.3-4.5
			c0.3-1.6,0.9-3.1,1.8-4.7C706.1,638.6,708.2,636.9,710.8,636.2z"/>
	</g>
	<g>
		<path class="st18" d="M747.4,551.6l2-14.2c0.5-3.5,1.6-6.5,3.3-9c1.7-2.5,3.9-4.3,6.6-5.5s5.6-1.5,8.9-1c3.2,0.5,6,1.6,8.2,3.4
			c2.3,1.8,3.9,4.2,4.8,7.1c1,2.9,1.2,6.1,0.7,9.5l-2,14.2L747.4,551.6z M776.9,541.5c0.3-2.4,0.2-4.6-0.5-6.5
			c-0.7-1.9-1.8-3.5-3.3-4.7c-1.6-1.2-3.4-2-5.7-2.3s-4.3-0.1-6.1,0.6c-1.8,0.7-3.3,1.9-4.5,3.6c-1.2,1.7-1.9,3.7-2.3,6.1l-1.1,7.9
			l22.3,3.2L776.9,541.5z"/>
		<path class="st18" d="M774.3,492l-0.2,19.7c1.9-0.3,3.3-1.2,4.4-2.7s1.7-3.3,1.7-5.4c0-2.8-0.9-5-2.7-6.8l3.6-3.1
			c1.3,1.1,2.3,2.6,3,4.3c0.7,1.7,1,3.7,1,5.8c0,2.8-0.6,5.2-1.7,7.3c-1.1,2.1-2.7,3.7-4.6,4.8c-2,1.1-4.2,1.7-6.7,1.7
			c-2.4,0-4.6-0.6-6.6-1.7s-3.5-2.7-4.5-4.7c-1.1-2-1.6-4.2-1.6-6.7c0-2.4,0.6-4.6,1.7-6.5c1.1-1.9,2.6-3.4,4.6-4.5
			c2-1.1,4.2-1.6,6.8-1.6C772.9,491.8,773.5,491.9,774.3,492z M765.8,509.3c1.1,1.3,2.6,2.1,4.4,2.4l0.1-14.2
			c-1.8,0.2-3.3,1-4.4,2.3c-1.1,1.3-1.7,2.9-1.7,4.8C764.1,506.3,764.7,507.9,765.8,509.3z"/>
		<path class="st18" d="M757.2,463.7l26,8.3l0.6,6l-24,13.1l-0.6-6.1l17.8-9.5l-19.3-6.2L757.2,463.7z"/>
		<path class="st18" d="M766.2,435.3l3.9,19.3c1.7-0.7,3-1.9,3.8-3.5c0.8-1.6,0.9-3.5,0.5-5.6c-0.5-2.7-1.9-4.7-4-6.1l2.9-3.8
			c1.5,0.8,2.8,2,3.8,3.6c1,1.6,1.7,3.4,2.2,5.5c0.5,2.7,0.5,5.2-0.2,7.5c-0.7,2.3-1.8,4.2-3.5,5.7c-1.7,1.5-3.8,2.5-6.2,3
			c-2.4,0.5-4.7,0.4-6.8-0.3c-2.1-0.7-3.9-1.9-5.4-3.6s-2.4-3.8-2.9-6.2c-0.5-2.4-0.4-4.6,0.3-6.7c0.7-2.1,1.9-3.9,3.6-5.3
			c1.7-1.4,3.8-2.4,6.3-2.9C764.9,435.5,765.5,435.4,766.2,435.3z M761.5,454c1.3,1.1,3,1.5,4.8,1.4l-2.8-14c-1.7,0.6-3,1.7-3.9,3.1
			c-0.9,1.5-1.1,3.2-0.7,5C759.3,451.5,760.1,453,761.5,454z"/>
		<path class="st18" d="M741,435.8l-1.6-5.6l33.5-9.7l1.6,5.6L741,435.8z"/>
		<path class="st18" d="M767.4,407.8c-0.3,2.3-1.2,4.3-2.6,6.1c-1.4,1.8-3.3,3.1-5.6,4c-2.3,0.9-4.6,1.1-6.8,0.8
			c-2.2-0.4-4.2-1.3-6-2.8c-1.8-1.5-3.1-3.4-4-5.8c-0.9-2.4-1.2-4.7-0.9-7c0.3-2.3,1.1-4.3,2.5-6.1c1.4-1.8,3.3-3.1,5.6-4
			c2.3-0.9,4.6-1.1,6.8-0.8c2.2,0.4,4.2,1.3,6,2.8s3.1,3.5,4,5.9C767.4,403.2,767.7,405.5,767.4,407.8z M757.8,398.4
			c-1.8-0.8-3.9-0.8-6.1,0.1c-2.2,0.8-3.7,2.2-4.6,4c-0.8,1.8-0.9,3.8-0.1,5.8c0.8,2,2.1,3.4,3.9,4.2c1.8,0.8,3.9,0.8,6.1-0.1
			c2.2-0.8,3.7-2.2,4.6-4c0.8-1.8,0.9-3.7,0.1-5.8C761,400.6,759.7,399.2,757.8,398.4z"/>
		<path class="st18" d="M727.4,374.1c0-2.2,0.7-4.2,1.9-6.1s2.9-3.4,5.2-4.6c2.2-1.2,4.5-1.7,6.7-1.7c2.2,0.1,4.3,0.7,6.1,1.9
			c1.8,1.2,3.3,2.9,4.5,5.1c1.6,3,1.8,5.9,0.8,8.7l10.8-5.7l2.7,5.2l-30.3,16l-2.6-4.9l2.9-1.5c-1.5-0.3-2.9-0.9-4-1.9
			c-1.2-1-2.2-2.2-3-3.8C727.9,378.4,727.3,376.3,727.4,374.1z M743.2,367.8c-1.9-0.6-3.9-0.3-6,0.8c-2.1,1.1-3.4,2.6-4.1,4.5
			c-0.6,1.9-0.4,3.8,0.6,5.7c0.7,1.2,1.5,2.2,2.6,2.9c1.1,0.7,2.3,1.1,3.7,1.1c1.4,0,2.7-0.3,4.1-1.1c1.4-0.7,2.5-1.7,3.2-2.8
			c0.7-1.1,1.1-2.4,1.2-3.7c0-1.3-0.3-2.6-0.9-3.8C746.6,369.6,745.2,368.4,743.2,367.8z"/>
	</g>
	<g>
		<path class="st18" d="M538.8,212.5l-10.7-1.8l0.9-5.1l27.5,4.7l-0.9,5.1l-10.7-1.8l-4.7,27.3l-6-1L538.8,212.5z"/>
		<path class="st18" d="M577.1,238.8l-19-5.1c-0.1,1.9,0.3,3.5,1.5,4.9c1.1,1.4,2.7,2.4,4.8,3c2.7,0.7,5.1,0.4,7.3-0.9l2.1,4.3
			c-1.4,1-3.1,1.6-4.9,1.8c-1.8,0.2-3.8,0.1-5.9-0.5c-2.7-0.7-4.9-1.9-6.6-3.5c-1.7-1.6-2.9-3.5-3.5-5.7c-0.6-2.2-0.6-4.5,0.1-6.9
			c0.6-2.4,1.7-4.3,3.3-5.9c1.6-1.6,3.5-2.7,5.7-3.2c2.2-0.5,4.5-0.5,6.9,0.1c2.4,0.6,4.3,1.7,5.9,3.3s2.6,3.4,3.2,5.6
			c0.5,2.2,0.5,4.5-0.2,7C577.5,237.5,577.3,238.1,577.1,238.8z M562.4,226.2c-1.5,0.7-2.7,2-3.4,3.7l13.8,3.7
			c0.2-1.8-0.1-3.4-1.1-4.9c-0.9-1.4-2.3-2.4-4.2-2.9C565.7,225.3,564,225.5,562.4,226.2z"/>
		<path class="st18" d="M580.9,251c-1.6-1.2-2.9-2.3-3.7-3.5l3.7-3.4c0.8,1.1,1.9,2.1,3.2,3.1c1.3,1,2.7,1.7,4.2,2.3
			c3.3,1.2,5.3,1,5.9-0.8c0.3-0.8,0.1-1.6-0.6-2.2c-0.7-0.6-2-1.4-3.7-2.4c-1.8-1-3.3-1.9-4.4-2.8c-1.1-0.8-1.9-1.9-2.4-3.2
			c-0.5-1.3-0.5-2.8,0.1-4.5c0.8-2.2,2.4-3.7,4.8-4.3c2.4-0.7,5.1-0.4,8.3,0.8c1.6,0.6,3.2,1.4,4.6,2.3c1.5,1,2.6,1.9,3.4,2.9
			l-3.7,3.4c-1.6-1.9-3.6-3.3-6.1-4.2c-1.6-0.6-2.9-0.8-4-0.6c-1,0.2-1.7,0.7-2,1.5c-0.3,0.9-0.1,1.7,0.7,2.4c0.8,0.7,2,1.6,3.8,2.6
			c1.8,1,3.2,1.9,4.3,2.7s1.9,1.9,2.4,3.1c0.5,1.2,0.5,2.7-0.1,4.4c-0.8,2.2-2.4,3.6-4.8,4.2s-5.2,0.3-8.5-0.9
			C584.3,253.1,582.5,252.1,580.9,251z"/>
		<path class="st18" d="M615.4,264.3c-0.9,0.2-1.8,0.3-2.8,0.1c-1-0.2-2-0.5-3-0.9c-2.5-1.1-4.2-2.7-4.9-4.6
			c-0.8-1.9-0.6-4.2,0.5-6.7l5-11l-3.8-1.7l1.9-4.3l3.8,1.7l2.4-5.2l5.3,2.4l-2.4,5.2l6.1,2.8l-1.9,4.3l-6.1-2.8l-4.9,10.9
			c-0.5,1.1-0.6,2.1-0.3,2.9c0.3,0.8,0.9,1.5,2,1.9c1.2,0.5,2.3,0.7,3.4,0.4L615.4,264.3z"/>
		<path class="st18" d="M643.6,268.9l-17.3-9.5c-0.6,1.8-0.5,3.5,0.3,5.2c0.8,1.6,2.1,3,4,4c2.4,1.3,4.8,1.6,7.3,0.9l1,4.7
			c-1.6,0.6-3.4,0.8-5.2,0.6c-1.8-0.2-3.7-0.9-5.6-1.9c-2.4-1.3-4.3-3-5.6-5c-1.3-2-2-4.1-2.1-6.4c-0.1-2.3,0.5-4.5,1.7-6.7
			c1.2-2.1,2.7-3.8,4.6-5c1.9-1.2,4-1.8,6.3-1.8c2.3,0,4.5,0.6,6.6,1.8c2.1,1.2,3.8,2.7,5,4.6c1.2,1.9,1.8,3.9,1.8,6.2
			c0,2.2-0.6,4.5-1.8,6.7C644.3,267.8,644,268.3,643.6,268.9z M632.4,253.3c-1.7,0.3-3.1,1.3-4.2,2.7l12.5,6.9
			c0.7-1.7,0.7-3.4,0.1-5s-1.7-2.9-3.4-3.8C635.8,253.2,634.1,252.9,632.4,253.3z"/>
	</g>
	<g>
		<path class="st18" d="M232.5,367.5l7.6-13.3c1.9-3.2,4.1-5.8,6.8-7.5c2.7-1.8,5.6-2.7,8.7-2.8c3.1-0.1,6.1,0.8,9.1,2.5
			c3,1.7,5.3,3.9,6.8,6.7c1.5,2.7,2.2,5.7,2,8.9c-0.2,3.2-1.2,6.5-3.1,9.7l-7.6,13.3L232.5,367.5z M265.5,369.2
			c1.3-2.2,2-4.4,2.1-6.6c0.1-2.2-0.3-4.2-1.4-6c-1.1-1.8-2.6-3.3-4.7-4.5c-2.1-1.2-4.2-1.8-6.3-1.8c-2.1,0-4.1,0.6-5.9,1.8
			c-1.8,1.2-3.4,2.9-4.7,5.1l-4.2,7.4l20.8,12L265.5,369.2z"/>
		<path class="st18" d="M262.1,317.4l4.4-5.9l0.2,11.1l-3.3,4.3L262.1,317.4z M289.3,324.2l-12.7,16.7c1.8,0.9,3.6,1.1,5.5,0.5
			c1.9-0.5,3.5-1.7,4.9-3.6c1.8-2.3,2.5-4.8,2.1-7.5l5.1-0.3c0.4,1.8,0.4,3.7-0.2,5.6c-0.5,1.9-1.5,3.8-2.9,5.6
			c-1.8,2.3-3.8,4-6.1,5.1c-2.3,1.1-4.6,1.5-7,1.2c-2.4-0.3-4.6-1.2-6.7-2.8c-2.1-1.6-3.6-3.5-4.5-5.7c-0.9-2.2-1.2-4.5-0.9-6.9
			c0.3-2.4,1.3-4.6,2.9-6.7c1.6-2.1,3.4-3.6,5.6-4.5c2.2-0.9,4.4-1.2,6.8-0.9c2.4,0.3,4.6,1.3,6.8,3
			C288.2,323.3,288.7,323.7,289.3,324.2z M271.1,333.6c0.1,1.8,0.9,3.4,2.2,4.9l9.2-12.1c-1.7-1-3.4-1.3-5.2-0.9
			c-1.8,0.4-3.3,1.4-4.5,3C271.5,330,271,331.8,271.1,333.6z"/>
		<path class="st18" d="M298.5,293.9c2.2-0.7,4.5-0.8,6.8-0.2c2.3,0.6,4.4,1.8,6.4,3.7s3.3,3.9,4,6.2c0.7,2.3,0.8,4.6,0.2,6.8
			c-0.6,2.3-1.8,4.3-3.6,6.2c-2.5,2.6-5.3,3.8-8.5,3.7l9.4,8.9l-4.3,4.5l-26.3-25.1l4.1-4.3l2.5,2.4c-0.2-1.6,0-3.2,0.6-4.7
			c0.6-1.5,1.5-3,2.8-4.3C294.2,295.9,296.2,294.6,298.5,293.9z M310.1,307.8c-0.1-2.1-1-4.1-2.8-5.8c-1.8-1.7-3.8-2.6-5.9-2.6
			c-2.1,0-4,0.9-5.6,2.5c-1,1.1-1.7,2.3-2.1,3.6c-0.3,1.3-0.3,2.7,0.1,4.1c0.4,1.4,1.3,2.6,2.5,3.8c1.2,1.2,2.5,1.9,3.9,2.3
			c1.4,0.4,2.8,0.4,4.1,0c1.3-0.4,2.5-1.1,3.5-2.2C309.4,311.8,310.2,309.9,310.1,307.8z"/>
		<path class="st18" d="M300.8,275.6l4.7-4.1l24.6,27.7l-4.7,4.1L300.8,275.6z"/>
		<path class="st18" d="M338.6,290.2c-2.4,0.4-4.8,0.1-7-0.8c-2.2-0.9-4.1-2.4-5.7-4.5c-1.6-2.1-2.5-4.3-2.8-6.7
			c-0.3-2.4,0.1-4.7,1.1-6.9c1-2.2,2.6-4.2,4.8-5.8c2.2-1.7,4.5-2.7,6.9-3c2.4-0.4,4.8-0.1,7,0.8c2.2,0.9,4.1,2.4,5.7,4.5
			c1.6,2.1,2.5,4.3,2.8,6.7c0.3,2.4-0.1,4.7-1.1,7c-1,2.2-2.6,4.2-4.8,5.8C343.4,288.8,341.1,289.8,338.6,290.2z M345.4,277.6
			c0.3-2.1-0.4-4.2-1.9-6.2c-1.5-2-3.3-3.1-5.5-3.5c-2.1-0.3-4.1,0.2-5.9,1.6c-1.8,1.4-2.9,3.1-3.1,5.3c-0.3,2.1,0.4,4.2,1.9,6.2
			c1.5,2,3.3,3.1,5.4,3.5c2.1,0.3,4.1-0.2,5.9-1.6C344.1,281.5,345.2,279.8,345.4,277.6z"/>
		<path class="st18" d="M367.7,240l4.5,31.1c0.5,3.1,0.4,5.6-0.4,7.4c-0.8,1.9-2.2,3.4-4.2,4.7c-1.1,0.7-2.4,1.2-3.7,1.5
			c-1.3,0.3-2.6,0.4-3.7,0.2l-0.3-5.2c0.8,0.2,1.6,0.2,2.5,0c0.9-0.1,1.7-0.4,2.4-0.9c0.9-0.6,1.6-1.3,1.9-2.2s0.4-2,0.2-3.5
			l-0.2-1.1l-24-16.7l5.5-3.4l17.5,12.4l-3.2-21.2L367.7,240z"/>
		<path class="st18" d="M401.3,240.5l-18.8,9.3c1.2,1.6,2.7,2.6,4.6,2.9c1.9,0.3,3.9,0,5.9-1c2.6-1.3,4.4-3.2,5.2-5.8l4.7,2
			c-0.4,1.8-1.3,3.5-2.6,4.9c-1.3,1.5-3,2.7-5.1,3.7c-2.6,1.3-5.2,1.9-7.7,1.9c-2.5-0.1-4.8-0.8-6.8-2.1c-2-1.3-3.6-3.2-4.8-5.5
			c-1.1-2.3-1.7-4.7-1.5-7.1c0.1-2.4,0.9-4.6,2.3-6.6c1.4-2,3.2-3.5,5.6-4.7c2.3-1.1,4.7-1.7,7-1.5c2.3,0.1,4.5,0.9,6.5,2.2
			c2,1.4,3.5,3.3,4.7,5.7C400.7,239.2,401,239.8,401.3,240.5z M380.8,240.7c-0.7,1.7-0.8,3.5-0.2,5.4l13.6-6.7
			c-1.1-1.6-2.5-2.7-4.3-3.1c-1.8-0.5-3.5-0.3-5.4,0.6C382.7,237.8,381.5,239,380.8,240.7z"/>
		<path class="st18" d="M416.2,218.1l2.1,5.6c-0.5,0.1-1,0.2-1.4,0.4c-2.3,0.9-3.8,2.2-4.6,4c-0.8,1.8-0.7,4,0.2,6.5l4.6,12.1
			l-5.8,2.2l-9.4-25l5.6-2.1l1.4,3.6C409.5,222.2,411.9,219.7,416.2,218.1z"/>
	</g>
	<g>
		<path class="st18" d="M211,471.6l11.3-5.3c0-0.3,0.1-0.7,0.2-1.3l1.4-7.8l-10-1.8l1.1-6.4l34.5,6l-2.5,14.2
			c-0.5,3-1.5,5.5-2.8,7.5c-1.4,2-3.1,3.5-5.1,4.4c-2,0.9-4.3,1.1-6.9,0.6c-2.6-0.5-4.7-1.5-6.4-3.1c-1.7-1.6-2.7-3.6-3.2-6.2
			l-12.7,6L211,471.6z M238.7,474c1.4-1.2,2.4-3.3,2.9-6l1.3-7.5l-13.7-2.4l-1.3,7.5c-0.5,2.8-0.3,5,0.7,6.7
			c0.9,1.7,2.5,2.7,4.7,3.1C235.4,475.7,237.3,475.3,238.7,474z"/>
		<path class="st18" d="M219.3,512.7l1-20.9c-2,0.3-3.6,1.2-4.8,2.6s-1.9,3.4-2,5.7c-0.1,2.9,0.7,5.4,2.5,7.4l-4,3.2
			c-1.4-1.3-2.4-2.8-3-4.7s-0.9-3.9-0.8-6.2c0.1-2.9,0.9-5.5,2.1-7.7c1.3-2.2,3-3.8,5.1-4.9c2.1-1.1,4.5-1.6,7.2-1.5
			c2.6,0.1,4.9,0.8,6.9,2.1c2,1.3,3.6,3,4.6,5.2c1.1,2.2,1.5,4.5,1.4,7.2c-0.1,2.6-0.8,4.9-2.1,6.9c-1.2,2-2.9,3.5-5.1,4.6
			c-2.1,1-4.6,1.5-7.3,1.4C220.7,512.9,220.1,512.8,219.3,512.7z M229.1,494.7c-1.1-1.4-2.6-2.4-4.6-2.8l-0.7,15.1
			c1.9-0.2,3.5-0.9,4.8-2.2s1.9-3,2-5C230.7,497.8,230.2,496.1,229.1,494.7z"/>
		<path class="st18" d="M236.2,543.5l-27.3-10l-0.4-6.4l26-12.9l0.4,6.5l-19.3,9.4l20.2,7.4L236.2,543.5z"/>
		<path class="st18" d="M241,572.2l-26.3,4.5l-1-5.9l3.4-0.6c-1.4-0.8-2.5-1.9-3.4-3.2c-0.9-1.4-1.5-2.9-1.8-4.6
			c-0.6-3.5-0.1-6.5,1.5-8.8c1.6-2.4,4.3-3.9,8.2-4.5l15-2.6l1.1,6.2l-14.2,2.4c-2.4,0.4-4,1.2-5,2.5s-1.3,2.9-1,4.9
			c0.4,2.2,1.4,3.8,2.9,4.9c1.6,1.1,3.7,1.4,6.2,0.9l13.3-2.3L241,572.2z"/>
		<path class="st18" d="M235.5,607.9l-6.1-20c-1.8,0.9-3,2.3-3.6,4.1c-0.6,1.8-0.6,3.8,0,6c0.9,2.8,2.5,4.8,4.9,6.1l-2.7,4.3
			c-1.7-0.7-3.2-1.9-4.4-3.4c-1.2-1.5-2.2-3.4-2.9-5.6c-0.9-2.8-1-5.4-0.6-7.9c0.5-2.5,1.5-4.6,3.2-6.4c1.6-1.8,3.7-3,6.2-3.8
			c2.5-0.8,4.9-0.9,7.2-0.3s4.4,1.6,6.1,3.3c1.7,1.7,3,3.8,3.7,6.3c0.8,2.5,0.9,4.9,0.4,7.2c-0.5,2.3-1.6,4.3-3.2,6
			c-1.7,1.7-3.8,3-6.4,3.8C236.8,607.6,236.2,607.8,235.5,607.9z M238.6,587.7c-1.5-1-3.3-1.3-5.3-1l4.4,14.5c1.8-0.8,3-2.1,3.8-3.7
			c0.8-1.7,0.8-3.5,0.2-5.4C241.2,590.1,240.1,588.7,238.6,587.7z"/>
	</g>
</g>
</svg>
